<?xml version="1.0" encoding="utf-8"?>
<!-- Generator: Adobe Illustrator 16.0.0, SVG Export Plug-In . SVG Version: 6.00 Build 0)  -->
<!DOCTYPE svg PUBLIC "-//W3C//DTD SVG 1.1//EN" "http://www.w3.org/Graphics/SVG/1.1/DTD/svg11.dtd">
<svg version="1.1" id="Layer_1" xmlns="http://www.w3.org/2000/svg" xmlns:xlink="http://www.w3.org/1999/xlink" x="0px" y="0px"
	 width="800px" height="800px" viewBox="0 0 800 800" enable-background="new 0 0 800 800" xml:space="preserve">
<g id="black_knight">
	<path d="M136.4,614.5l139.1,59.3l25.9-67.399c15.3-22.801,43.6-57.801,61.3-74c21.7-9.4,58.2-29.801,70.8-64.7
		c6.5-17.8,8.9-38,7.5-59.101c7.2,19.801,11.101,41.5,11.101,63.5C452.101,536,416.7,610.9,350,689l-15.2,17.9h319.5V278.6
		l-4.399-3.2C588.4,230.5,502,187.5,449,175.5c-13.3-3-28.6-4.5-45.3-4.5c-9.9,0-20.4,0.5-31.101,1.6c-0.8-25.5-15.1-54.8-42.6-68.7
		l-9.4-4.8l-5.8,8.7c-15.3,22.7-20.3,50.5-14.399,72.1c-17.5-29.5-49.9-50.2-83.601-51.9l-14-0.8l2.9,13.7c1.7,8,2.9,17.4,4.2,27.3
		c3.2,23.7,6.5,50.4,18.399,69.4c-0.8,1.7-1.6,3.5-2.6,5.7c-10.5,23.5-30.2,67.1-44.1,109l-0.5,1.6v40
		c-14.4,61-35.301,169-43.301,212L136.4,614.5z"/>
	<path id="nose_2_" fill="#F2F2F2" d="M199.8,603.3c11.5-21.399-3-36.1-22.399-25.2L199.8,603.3z"/>
	<path id="eye_2_" fill="#F2F2F2" d="M270.601,359l4.5,3.7l-21.5,24.9c-4.5,3.6-14.101,7.4-18.601,8c-6.6-5.2-12.899-25-6-34.5
		C239.9,358.9,261.9,358.9,270.601,359z"/>
	<path id="crin_1_" fill="#F2F2F2" d="M430.9,214.8c55.1,17,151.3,92.3,196.3,135.8v-55.1c-61.5-45.3-163.8-104.1-209.5-104.1
		c-24.3,0-66.2,0.9-97.3,6l-0.601,2.9C356.8,199.1,393.7,203.3,430.9,214.8z"/>
</g>
</svg>
