<?xml version="1.0" encoding="utf-8"?>
<!-- Generator: Adobe Illustrator 16.0.0, SVG Export Plug-In . SVG Version: 6.00 Build 0)  -->
<!DOCTYPE svg PUBLIC "-//W3C//DTD SVG 1.1//EN" "http://www.w3.org/Graphics/SVG/1.1/DTD/svg11.dtd">
<svg version="1.1" id="Layer_1" xmlns="http://www.w3.org/2000/svg" xmlns:xlink="http://www.w3.org/1999/xlink" x="0px" y="0px"
	 width="800px" height="800px" viewBox="0 0 800 800" enable-background="new 0 0 800 800" xml:space="preserve">
<g id="white_knight">
	<path id="head_3_" fill="#FFFFFF" stroke="#000000" stroke-width="29.16" stroke-linecap="round" stroke-miterlimit="10" d="
		M641.4,692.1H356.701C423.301,614.3,461.4,536.5,461.4,468.4c0-50.802-19-97.602-50-127.8c16.801,35.6,24.5,81.5,10.5,119.9
		c-10.801,29.8-42.199,48.9-66.601,59.2C335.9,537,305.4,575.2,290.2,597.9L267.8,656l-120.9-51.5c8.5-46.6,29.5-153.7,43.4-212.8
		v-39.4C206.9,302.4,232,249.2,239,233c-18.4-23.4-18-68.1-24.3-97.7c33.5,1.8,68.199,25.5,81.5,60.4c47.3-15.3,106-22.9,148.6-13.2
		c54.3,12.3,139.4,56.3,196.601,98.1V692.1L641.4,692.1z"/>
	<path id="nose_3_" stroke="#000000" stroke-width="9.169" stroke-miterlimit="10" d="M198.301,600c11.5-21.4-3-36.1-22.4-25.2
		L198.301,600z"/>
	<path id="eye_3_" stroke="#000000" stroke-width="0.9518" stroke-miterlimit="10" d="M269.201,355.8l4.5,3.7l-21.5,24.9
		c-4.5,3.6-14.101,7.4-18.601,8c-6.6-5.2-12.899-25-6-34.5C238.501,355.7,260.4,355.7,269.201,355.8z"/>
	<path id="ear_1_" fill="#FFFFFF" stroke="#000000" stroke-width="23.76" stroke-linecap="square" stroke-miterlimit="10" d="
		M358.301,181.5c4.601-23.2-6.899-56.3-35.1-70.6c-16.9,25.4-19.5,57.2-7,75.1"/>
</g>
</svg>
